<svg xmlns="http://www.w3.org/2000/svg" width="22" height="22" viewBox="0 0 22 22">
  <path id="Icon_ionic-ios-checkmark-circle" data-name="Icon ionic-ios-checkmark-circle" d="M14.375,3.375a11,11,0,1,0,11,11A11,11,0,0,0,14.375,3.375Zm5.632,7.959-7.071,7.1h-.005a.955.955,0,0,1-.613.291.926.926,0,0,1-.619-.3L8.738,15.464a.211.211,0,0,1,0-.3l.941-.941a.2.2,0,0,1,.3,0l2.348,2.348,6.452-6.5a.209.209,0,0,1,.148-.063h0a.192.192,0,0,1,.148.063l.925.957A.208.208,0,0,1,20.007,11.334Z" transform="translate(-3.375 -3.375)" fill="#3dd598"/>
</svg>
