<svg xmlns="http://www.w3.org/2000/svg" width="15.881" height="15.312" viewBox="0 0 15.881 15.312">
  <path id="adjust" d="M4.839,5.773A1.865,1.865,0,0,0,3.084,7.028H0V8.284H3.084a1.854,1.854,0,0,0,3.509,0h9.288V7.028H6.593A1.865,1.865,0,0,0,4.839,5.773Zm0,2.51a.628.628,0,1,1,.62-.628A.625.625,0,0,1,4.839,8.284Zm8.33-7.028a1.854,1.854,0,0,0-3.509,0H0V2.51H9.66a1.854,1.854,0,0,0,3.509,0h2.712V1.255ZM11.414,2.51a.628.628,0,1,1,.62-.628A.625.625,0,0,1,11.414,2.51Zm-1.179,9.037A1.865,1.865,0,0,0,8.481,12.8H0v1.255H8.481a1.854,1.854,0,0,0,3.509,0h3.891V12.8H11.99A1.865,1.865,0,0,0,10.236,11.547Zm0,2.51a.628.628,0,1,1,.62-.628A.625.625,0,0,1,10.236,14.057Zm0,0" fill="#3f50de"/>
</svg>
