<svg xmlns="http://www.w3.org/2000/svg" width="23.377" height="18.265" viewBox="0 0 23.377 18.265">
  <path id="Icon_awesome-exchange-alt" data-name="Icon awesome-exchange-alt" d="M0,9.051V8.32a1.1,1.1,0,0,1,1.1-1.1H17.532V5.033A1.1,1.1,0,0,1,19.4,4.258L23.056,7.91a1.1,1.1,0,0,1,0,1.55L19.4,13.113a1.1,1.1,0,0,1-1.871-.775V10.146H1.1A1.1,1.1,0,0,1,0,9.051Zm22.281,6.94H5.844V13.8a1.1,1.1,0,0,0-1.871-.775L.321,16.677a1.1,1.1,0,0,0,0,1.55l3.653,3.653A1.1,1.1,0,0,0,5.844,21.1V18.913H22.281a1.1,1.1,0,0,0,1.1-1.1v-.731A1.1,1.1,0,0,0,22.281,15.99Z" transform="translate(0 -3.936)" fill="#3f50de"/>
</svg>
