<svg xmlns="http://www.w3.org/2000/svg" width="31.508" height="29.243" viewBox="0 0 31.508 29.243">
  <g id="Icon_ionic-ios-brush" data-name="Icon ionic-ios-brush" transform="translate(-2.248 -3.375)">
    <path id="Path_899" data-name="Path 899" d="M10.519,19.92c-3.649,0-5.9,3.213-5.9,6.687a3.415,3.415,0,0,1-2.208,3.263.283.283,0,0,0-.12.408c1.174,1.73,4.451,2.341,6.7,2.341a8.638,8.638,0,0,0,1.533-.12c2.5-.45,5.632-1.751,6.377-5.414C17.761,22.83,14.168,19.92,10.519,19.92Z" fill="#ffaaa5"/>
    <path id="Path_900" data-name="Path 900" d="M32.885,4.247a2.656,2.656,0,0,0-1.835-.872,2.119,2.119,0,0,0-1.322.492L18.12,14.084a2.079,2.079,0,0,1-1.385.52H16.72a1.67,1.67,0,0,0-1.083.408l-3.769,3.08a.411.411,0,0,0-.1.506h0a.412.412,0,0,0,.316.218c3.206.316,6.117,2.6,6.138,6.089a.416.416,0,0,0,.141.316.4.4,0,0,0,.563-.042l3.171-3.67a1.657,1.657,0,0,0,.422-1.02V20.4a2.175,2.175,0,0,1,.563-1.434L33.265,7.411A2.256,2.256,0,0,0,32.885,4.247Z" fill="#ffaaa5"/>
  </g>
</svg>
