<svg xmlns="http://www.w3.org/2000/svg" width="20.2" height="19.8" viewBox="0 0 20.2 19.8">
  <path id="Path_898" data-name="Path 898" d="M1632,1978.5a3,3,0,1,0,3-3A2.947,2.947,0,0,0,1632,1978.5Zm-1,0a4,4,0,1,1,4,4A4.012,4.012,0,0,1,1631,1978.5Zm.5,6.1a11.1,11.1,0,0,0,1.6.7c.2,0,.3.2.4.4l.4,1.9h2.2l.4-1.9c0-.2.2-.3.4-.4a7.742,7.742,0,0,0,1.6-.7.349.349,0,0,0,.2-.1.368.368,0,0,1,.3.1l1.6,1,1.5-1.5-1-1.6a.446.446,0,0,1,0-.5,11.1,11.1,0,0,0,.7-1.6c0-.2.2-.3.4-.4l1.9-.4v-2.2l-1.9-.4c-.2,0-.3-.2-.4-.4a7.742,7.742,0,0,0-.7-1.6.446.446,0,0,1,0-.5l1-1.6-1.5-1.5-1.6,1a.367.367,0,0,1-.3.1c-.1,0-.2,0-.2-.1a11.1,11.1,0,0,0-1.6-.7.781.781,0,0,1-.4-.4l-.4-1.9h-2.2l-.4,1.9c0,.2-.2.3-.4.4a7.742,7.742,0,0,0-1.6.7.349.349,0,0,0-.2.1.368.368,0,0,1-.3-.1l-1.6-1-1.5,1.5,1,1.6a.446.446,0,0,1,0,.5,11.1,11.1,0,0,0-.7,1.6c0,.2-.2.3-.4.4l-1.9.4v2.2l1.9.4c.2,0,.3.2.4.4a7.742,7.742,0,0,0,.7,1.6.446.446,0,0,1,0,.5l-1,1.6,1.5,1.5,1.6-1a.367.367,0,0,1,.3-.1C1631.4,1984.5,1631.5,1984.5,1631.5,1984.6Zm2,3.9a.664.664,0,0,1-.5-.4l-.4-2a6.946,6.946,0,0,1-1.3-.5l-1.7,1.1a.367.367,0,0,1-.3.1c-.1,0-.3-.1-.4-.1l-2.1-2.1a.471.471,0,0,1-.1-.6l1.1-1.7a5.025,5.025,0,0,1-.5-1.3l-2-.4c-.2,0-.4-.3-.4-.5v-3a.664.664,0,0,1,.4-.5l2-.4a6.946,6.946,0,0,1,.5-1.3l-1.1-1.7c-.1-.2-.1-.5.1-.6l2.1-2.1c.1-.1.2-.1.4-.1a.368.368,0,0,1,.3.1l1.7,1.1a5.025,5.025,0,0,1,1.3-.5l.4-2c0-.2.3-.4.5-.4h3a.664.664,0,0,1,.5.4l.4,2a6.946,6.946,0,0,1,1.3.5l1.7-1.1a.367.367,0,0,1,.3-.1c.1,0,.3.1.4.1l2.1,2.1a.471.471,0,0,1,.1.6l-1.1,1.7a5.025,5.025,0,0,1,.5,1.3l2,.4c.2,0,.4.3.4.5v3a.664.664,0,0,1-.4.5l-2,.4a6.946,6.946,0,0,1-.5,1.3l1.1,1.7c.1.2.1.5-.1.6l-2.1,2.1c-.1.1-.2.1-.4.1a.368.368,0,0,1-.3-.1l-1.7-1.1a5.025,5.025,0,0,1-1.3.5l-.4,2c0,.2-.3.4-.5.4Z" transform="translate(-1624.9 -1968.7)" fill="#ffaaa5"/>
</svg>
