<svg xmlns="http://www.w3.org/2000/svg" width="20.1" height="19.3" viewBox="0 0 20.1 19.3">
  <path id="Path_897" data-name="Path 897" d="M1386.1,2111.5h-3.6v-5a.536.536,0,0,1,.5-.5h2.7a.472.472,0,0,1,.5.5l-.1,5Zm-4.4-16.2a.368.368,0,0,0-.1.3.467.467,0,0,0,.5.5h4.5a.472.472,0,0,0,.5-.5.467.467,0,0,0-.5-.5h-4.5Zm-.2,4a.467.467,0,0,0,.5.5h4.5a.472.472,0,0,0,.5-.5.467.467,0,0,0-.5-.5H1382A.536.536,0,0,0,1381.5,2099.3Zm0,3.6a.467.467,0,0,0,.5.5h4.5c.1,0,.3,0,.3-.1a.368.368,0,0,0,.1-.3.467.467,0,0,0-.5-.5h-4.5C1381.7,2102.4,1381.5,2102.7,1381.5,2102.9Zm0,8.6h-3.9c-.5,0-.7-.5-.7-.9s.2-.9.7-.9h1.1V2093a.536.536,0,0,1,.5-.5h10a.472.472,0,0,1,.5.5v16.7h.9v-11.8h3.2a.472.472,0,0,1,.5.5v2.3h-1.4a.472.472,0,0,0-.5.5c0,.3.1.5.5.5h1.4v2.7h-1.4a.472.472,0,0,0-.5.5c0,.3.1.5.5.5h1.4v2.7h-1.4a.472.472,0,0,0-.5.5c0,.3.1.5.5.5h1.4v.9h2c.5,0,.7.5.7.9s-.2.9-.7.9H1387v-5a1.43,1.43,0,0,0-1.4-1.4h-2.7a1.367,1.367,0,0,0-1.4,1.4v4.7Z" transform="translate(-1376.9 -2092.5)" fill="#201c50"/>
</svg>
