<svg xmlns="http://www.w3.org/2000/svg" width="15" height="18" viewBox="0 0 15 18">
  <path id="Path_789" data-name="Path 789" d="M761.5,1972.6a2.7,2.7,0,1,0,2.7,2.7A2.689,2.689,0,0,0,761.5,1972.6Zm0,8.4a5.464,5.464,0,0,0-5.4,5.4h10.8a5.288,5.288,0,0,0-1.6-3.8A5.066,5.066,0,0,0,761.5,1981Zm7.5,7.5H754v-2a7.67,7.67,0,0,1,1.4-4.4,7.957,7.957,0,0,1,3.5-2.8,4.885,4.885,0,0,1-2.1-4,4.717,4.717,0,0,1,4.7-4.8,4.781,4.781,0,0,1,4.7,4.8,4.885,4.885,0,0,1-2.1,4,7.32,7.32,0,0,1,3.5,2.8,7.67,7.67,0,0,1,1.4,4.4v2Z" transform="translate(-754 -1970.5)" fill="#3240af"/>
</svg>
